<?xml version="1.0" encoding="UTF-8" standalone="no"?>
<svg width="60px" height="60px" viewBox="0 0 60 60" version="1.1" xmlns="http://www.w3.org/2000/svg" xmlns:xlink="http://www.w3.org/1999/xlink" xmlns:sketch="http://www.bohemiancoding.com/sketch/ns">
    <!-- Generator: Sketch 3.5.2 (25235) - http://www.bohemiancoding.com/sketch -->
    <title>icon_facetime</title>
    <desc>Created with Sketch.</desc>
    <defs></defs>
    <g id="Page-1" stroke="none" stroke-width="1" fill="none" fill-rule="evenodd" sketch:type="MSPage">
        <g id="icon_facetime" sketch:type="MSArtboardGroup" stroke="#000000" stroke-width="0.966666667" fill="#000000">
            <path d="M57.075726,15.0416282 C55.8513975,14.2586172 54.2387641,14.2586172 52.65017,15.0416282 L40.9516956,20.8018894 L40.9516956,18.4273952 C40.9516956,14.8834005 38.1235772,12 34.6473911,12 L10.8038449,12 L9.05986658,12 L7.30430451,12 C3.82811844,12 1,14.8834005 1,18.4273952 L1,19.0050658 L1,20.1056115 L1,40.8943885 L1,41.1857001 L1,42.5726048 C1,46.1165995 3.82811844,49 7.30430451,49 L15.2113402,49 L15.7861686,49 L34.6475157,49 C38.1237018,49 40.9518202,46.1169169 40.9518202,42.5726048 L40.9518202,40.2076347 L52.6541558,46.0205962 C53.4534351,46.4176257 54.2580081,46.6155372 55.0168688,46.6155372 C55.7658895,46.6155372 56.4693848,46.4229592 57.0773453,46.0346919 C58.2989335,45.2542206 59,43.7748048 59,41.9737906 L58.9999999,19.1050692 C58.9998131,17.3052614 58.2976257,15.8243852 57.075726,15.0416282 L57.075726,15.0416282 Z M38.4300485,42.5727317 C38.4300485,44.6990269 36.733028,46.4291816 34.6474534,46.4291816 L15.2112779,46.4291816 L15.2112779,46.4291816 L7.30424219,46.4291816 C5.21866755,46.4291816 3.52164701,44.6987095 3.52164701,42.5727317 L3.52164701,41.185827 L3.52164701,41.185827 L3.52164701,19.0051293 L3.52164701,19.0051293 L3.52164701,18.4274587 C3.52164701,16.301481 5.21866755,14.5710088 7.30424219,14.5710088 L9.05980426,14.5710088 L10.8037826,14.5710088 L34.6473911,14.5710088 C36.7329657,14.5710088 38.4299863,16.3014809 38.4299863,18.4274587 L38.4299863,42.5727317 L38.4300485,42.5727317 Z M56.4781038,41.9738541 C56.4781038,42.8685515 56.2084389,43.5537178 55.739359,43.8532201 C55.2675388,44.1514526 54.5466056,44.0987524 53.7583495,43.7080088 L40.9517579,37.3459493 L40.9517579,23.6557016 L53.7459562,17.3565648 C54.5363919,16.9685515 55.2626188,16.9169941 55.7341898,17.2192902 C56.207131,17.5213324 56.478166,18.208975 56.478166,19.1050692 L56.478166,41.9738541 L56.4781038,41.9738541 Z" id="Shape" sketch:type="MSShapeGroup"></path>
        </g>
    </g>
</svg>