<?xml version="1.0" encoding="UTF-8" standalone="no"?>
<svg width="60px" height="60px" viewBox="0 0 60 60" version="1.1" xmlns="http://www.w3.org/2000/svg" xmlns:xlink="http://www.w3.org/1999/xlink" xmlns:sketch="http://www.bohemiancoding.com/sketch/ns">
    <!-- Generator: Sketch 3.5.2 (25235) - http://www.bohemiancoding.com/sketch -->
    <title>icon_message</title>
    <desc>Created with Sketch.</desc>
    <defs></defs>
    <g id="Page-1" stroke="none" stroke-width="1" fill="none" fill-rule="evenodd" sketch:type="MSPage">
        <g id="icon_message" sketch:type="MSArtboardGroup" fill="#272636">
            <path d="M54.903264,45.9557889 C58.2380029,41.0912049 60,35.404578 60,29.5 C60,13.2333007 46.5426331,0 30.000506,0 C13.458379,0 0,13.2333007 0,29.5 C0,45.7666991 13.458379,59 30.000506,59 C35.2703043,59 40.4520536,57.6375581 44.9921565,55.0579751 C54.6158387,58.706413 55.8728178,58.1371534 56.6247787,57.7957963 L56.9162519,57.665424 L57.1611706,57.460411 C57.6985746,57.0085859 58.2552079,56.5418326 58.0295186,54.8927704 C57.8058531,53.2586363 56.8120098,50.416318 54.903264,45.9557889 Z M50.1855929,45.8359961 L50.7240703,47.0732302 C51.6739566,49.2527285 52.6613384,51.7200275 53.3164684,53.5461766 C51.3125416,52.9388258 48.5482887,51.9750533 46.0735844,51.0174259 L44.948719,50.5821407 L43.9280075,51.2181691 C39.7649637,53.8042751 34.9488728,55.1715827 30.000506,55.1715827 C15.605352,55.1715827 3.89425208,43.6554736 3.89425208,29.5 C3.89425208,15.3445264 15.605352,3.82841728 30.000506,3.82841728 C44.3956601,3.82841728 56.10676,15.3445264 56.10676,29.5 C56.10676,35.0409242 54.3403045,40.315556 50.9990371,44.7554646 L50.1855929,45.8359961 Z M18.938686,32.7682678 C17.1058447,32.7682678 15.6140676,31.3023242 15.6140676,29.5 C15.6140676,27.6976755 17.1058447,26.2307368 18.938686,26.2307368 C20.7715273,26.2307368 22.2622923,27.6976755 22.2622923,29.5 C22.2622923,31.3023242 20.7715273,32.7682678 18.938686,32.7682678 Z M40.9671922,32.7682678 C39.134351,32.7682678 37.6435859,31.3023242 37.6435859,29.5 C37.6435859,27.6976755 39.134351,26.2307368 40.9671922,26.2307368 C42.8000337,26.2307368 44.2907985,27.6976755 44.2907985,29.5 C44.2907985,31.3023242 42.8000337,32.7682678 40.9671922,32.7682678 Z" id="Shape" sketch:type="MSShapeGroup"></path>
        </g>
    </g>
</svg>