<?xml version="1.0" encoding="UTF-8" standalone="no"?>
<svg width="60px" height="60px" viewBox="0 0 60 60" version="1.1" xmlns="http://www.w3.org/2000/svg" xmlns:xlink="http://www.w3.org/1999/xlink" xmlns:sketch="http://www.bohemiancoding.com/sketch/ns">
    <!-- Generator: Sketch 3.5.2 (25235) - http://www.bohemiancoding.com/sketch -->
    <title>icon_sms</title>
    <desc>Created with Sketch.</desc>
    <defs></defs>
    <g id="Page-1" stroke="none" stroke-width="1" fill="none" fill-rule="evenodd" sketch:type="MSPage">
        <g id="icon_sms" sketch:type="MSArtboardGroup" fill="#000000">
            <path d="M53.7423735,8 L6.25762649,8 C2.81593191,8 -3.55271368e-15,10.8010962 -3.55271368e-15,14.2246583 L-3.55271368e-15,46.7753417 C-3.55271368e-15,50.1989038 2.81593191,53 6.25762649,53 L53.7423735,52.9999999 C57.1840681,52.9999999 60,50.1989037 60,46.7753416 L60,14.2246583 C60,10.8010962 57.1840681,8 53.7423735,8 Z M56.0889834,46.7753416 C56.0889834,47.3919719 55.8429805,47.9762338 55.3963424,48.4205967 C54.9497044,48.8649595 54.3622697,49.1095885 53.7423735,49.1095885 L6.25762649,49.1095885 C5.63773034,49.1095885 5.05037389,48.8648816 4.60365756,48.4205967 C4.15694122,47.9763117 3.91101656,47.3919719 3.91101656,46.7753416 L3.91101656,14.2246583 C3.91101656,13.6080281 4.1570195,13.0237661 4.60365756,12.5794033 C5.05029562,12.1350405 5.63773034,11.8904114 6.25762649,11.8904114 L53.7423735,11.8904114 C54.3622697,11.8904114 54.9496261,12.1351183 55.3963424,12.5794033 C55.8430588,13.0236882 56.0889834,13.6080281 56.0889834,14.2246583 L56.0889834,46.7753416 Z M48.9089828,17.61344 L30.5260317,31.3279962 L12.1430024,17.61344 C11.2790589,16.9689545 10.0532681,17.1430115 9.40529085,18.0024812 C8.75731359,18.8619508 8.93237075,20.0812058 9.79639251,20.7257692 L29.3527267,35.3156679 C29.3532743,35.316057 29.3539001,35.316446 29.3544476,35.3168351 C29.3973124,35.3488143 29.4412722,35.378926 29.4862489,35.4070148 C29.4876569,35.4078707 29.4889866,35.4086488 29.4903945,35.4095047 C29.5301305,35.4341699 29.5707268,35.4571233 29.6119489,35.4787541 C29.6210225,35.4835782 29.6301743,35.4884023 29.639326,35.4930708 C29.6808611,35.514079 29.7228654,35.5339979 29.7656519,35.5518937 C29.773474,35.5551617 29.7813742,35.5579628 29.7891962,35.5610751 C29.8237696,35.5750028 29.8585777,35.587919 29.8937768,35.5999014 C29.9120804,35.606126 29.9303839,35.6118839 29.9488439,35.6175639 C29.9747348,35.6255004 30.0007822,35.6327366 30.026986,35.6395837 C30.045446,35.6444078 30.0637496,35.6496209 30.0823661,35.6539004 C30.122102,35.6630817 30.1620726,35.6709404 30.2021996,35.6776319 C30.2204249,35.6806664 30.2386503,35.6829228 30.2569538,35.6854127 C30.2850349,35.6893031 30.313116,35.6926488 30.3412753,35.6952944 C30.3584838,35.6969283 30.375614,35.6985623 30.3928225,35.6996516 C30.4339664,35.7024527 30.4751103,35.7042423 30.5164107,35.7044757 C30.5190701,35.7044757 30.5218079,35.7047869 30.5244674,35.7047869 L30.5260318,35.7047869 L30.5275962,35.7047869 C30.5302556,35.7047869 30.5329934,35.7044757 30.5356529,35.7044757 C30.576875,35.7042423 30.6180972,35.7024527 30.6592411,35.6996516 C30.6764495,35.6984845 30.6935797,35.6969283 30.7107883,35.6952944 C30.7390258,35.6926489 30.7671851,35.6892253 30.7953444,35.6854127 C30.8134916,35.6829228 30.8317169,35.6806664 30.849864,35.6777097 C30.8901475,35.6710182 30.9301962,35.6630817 30.9699322,35.6539004 C30.988314,35.6496209 31.0065393,35.6444856 31.0247647,35.6396615 C31.0511249,35.6327366 31.0774069,35.6254226 31.1034543,35.6174083 C31.1217579,35.6118061 31.1399832,35.6060483 31.1581303,35.5999014 C31.1934859,35.587919 31.2285287,35.574925 31.2632585,35.5609195 C31.2709241,35.5578072 31.2786679,35.5551617 31.2862553,35.5519716 C31.3290417,35.5340757 31.3710461,35.514079 31.4126593,35.4930708 C31.4218893,35.4884023 31.4310411,35.4835003 31.4402711,35.4786762 C31.4811021,35.4572011 31.5213856,35.4344811 31.5608086,35.4100494 C31.5625295,35.4089601 31.5643286,35.4080263 31.5660494,35.406937 C31.6107915,35.3790039 31.6545166,35.3490477 31.6972249,35.3172242 C31.6979289,35.3166795 31.6986329,35.3162904 31.6993368,35.3157458 L51.2556711,20.7257692 C52.1196928,20.0812058 52.29475,18.8619509 51.6467727,18.0024812 C50.9987172,17.1430893 49.7730828,16.968721 48.9089828,17.61344 Z" id="Shape" sketch:type="MSShapeGroup"></path>
        </g>
    </g>
</svg>