<?xml version="1.0" encoding="UTF-8" standalone="no"?>
<svg width="60px" height="60px" viewBox="0 0 60 60" version="1.1" xmlns="http://www.w3.org/2000/svg" xmlns:xlink="http://www.w3.org/1999/xlink" xmlns:sketch="http://www.bohemiancoding.com/sketch/ns">
    <!-- Generator: Sketch 3.5.2 (25235) - http://www.bohemiancoding.com/sketch -->
    <title>icon_call</title>
    <desc>Created with Sketch.</desc>
    <defs></defs>
    <g id="Page-1" stroke="none" stroke-width="1" fill="none" fill-rule="evenodd" sketch:type="MSPage">
        <g id="icon_call" sketch:type="MSArtboardGroup" fill="#000000">
            <path d="M21.676911,60 L21.6776704,60 C19.4121299,60 17.3340438,59.4732079 15.4995449,58.4324439 C13.5400764,57.3209977 12.0114424,55.6081008 10.7168676,53.6370866 C10.5442576,53.32858 10.5269966,53.2943015 10.3527986,52.9777738 C8.3986465,49.4267263 10.5941764,43.8064225 15.9400456,39.6261586 C18.8539091,37.3484205 22.0752256,36.0423408 24.7791265,36.0423408 C26.788721,36.0423408 28.4153974,36.7740498 29.4002409,38.1121455 C29.6111013,38.249191 29.9628804,38.4281248 30.2514153,38.4281248 C30.334199,38.4281248 30.5064638,38.4281248 30.7644812,38.1381286 C30.7813279,38.1207837 30.7979676,38.1034388 30.8148142,38.0845856 C32.3200423,36.1461361 33.7112097,34.0589179 34.9527588,31.8793533 C36.0931584,29.8759803 37.1025816,27.8045302 37.9537559,25.7175176 C38.0715449,25.0577935 37.9828925,24.7287884 37.9072203,24.6363735 C37.8527446,24.5699418 37.6906984,24.5266138 37.6892484,24.5266138 C36.2159186,24.4920611 34.899664,23.8338452 33.8523356,22.6242252 C31.8811297,20.3465556 31.0430737,16.3424148 31.6114438,11.9125349 C32.4821576,5.12120878 36.2333868,-3.55271368e-15 40.3371545,-3.55271368e-15 C40.3502039,-3.55271368e-15 40.4403062,0.00143966843 40.454046,0.00143966843 C40.6488881,0.00582734421 40.8392424,0.0245433688 41.0260755,0.0534058768 C43.5452146,-0.0577250161 45.8624691,0.463308267 47.8765514,1.60505671 C57.1989403,6.89375027 57.3951633,23.5162891 48.3242326,39.4472247 C41.3233099,51.7407996 30.6148629,60 21.676911,60 L21.676911,60 Z M24.7791265,39.4169227 C22.8521777,39.4169227 20.3344195,40.4864121 18.0427113,42.2776696 C14.0465831,45.4012642 12.2834066,49.5072122 13.1851903,51.1861049 C13.3232782,51.4431936 13.420078,51.6043027 13.4958883,51.734561 C14.3934602,53.2770937 15.7365039,54.679496 17.1857373,55.5023172 C18.4998516,56.2486289 20.0109484,56.6252811 21.6768419,56.6252811 C29.3078601,56.6252811 39.0481723,48.878613 45.3650762,37.7858143 C53.2316725,23.9708908 53.6096883,8.74417281 46.1900137,4.53525221 C44.7014252,3.69234373 42.9454294,3.31987352 41.0258683,3.43388382 C40.8849496,3.4410823 40.7438926,3.43251269 40.6058737,3.40646105 C40.5288206,3.39062436 40.4503176,3.37766708 40.3702956,3.37471914 C38.3519326,3.37471914 35.6408512,7.2084958 34.9830691,12.339851 C34.5476086,15.7319148 35.1153574,18.9058988 36.4294717,20.4244366 C37.0457584,21.1360584 37.5684214,21.147576 37.7398576,21.1519636 C37.8874737,21.1519636 39.4791448,21.2010504 40.5490505,22.5130945 C41.3652886,23.5134784 41.6030761,24.8687819 41.2555777,26.5387622 C41.2351406,26.6368673 41.2060731,26.7336698 41.1683751,26.8275244 C40.2480877,29.1008749 39.1521524,31.3598284 37.9106033,33.5408326 C36.5558221,35.9194867 35.0316759,38.1958538 33.3795222,40.3074783 C33.3061975,40.4014013 33.2240351,40.4864806 33.1352446,40.5616191 C32.3313654,41.3742939 31.3392723,41.8028438 30.251208,41.8028438 C28.5257296,41.8028438 27.1869666,40.6943455 27.039972,40.5672408 C26.9127929,40.4576181 26.8015631,40.3292108 26.7122201,40.1862009 C26.3119032,39.549649 25.4398086,39.4169227 24.7791265,39.4169227 L24.7791265,39.4169227 Z M19.4179296,28.0514041 C18.6060412,28.0514041 17.8849458,27.4754567 17.733118,26.6542808 C17.4460331,25.099682 17.7862128,23.5263671 18.6903439,22.2243323 C19.5953035,20.9237372 20.9559535,20.0491555 22.5222165,19.764781 C23.4555532,19.5958565 24.3473254,20.2078649 24.5180712,21.133179 C24.6890241,22.0583558 24.0718398,22.946032 23.1400912,23.1148194 C22.4750595,23.2360968 21.8971612,23.6070588 21.5134147,24.1599025 C21.1289087,24.711238 20.9850211,25.3795317 21.1063314,26.0406956 C21.2779057,26.9658724 20.6607905,27.8521089 19.7289728,28.0224731 C19.6250616,28.0411891 19.5203219,28.0514041 19.4179296,28.0514041 L19.4179296,28.0514041 Z M13.6227911,27.9286185 C12.8109028,27.9286185 12.0899454,27.3541792 11.9387391,26.5329348 C10.8964511,20.8919267 14.6702576,15.4619372 20.3511283,14.4283717 C21.2799771,14.2595843 22.1762371,14.8715242 22.347052,15.7966325 C22.5177978,16.7204382 21.9007517,17.6083201 20.9696934,17.7771074 C17.1494203,18.472824 14.6113631,22.1247874 15.3120216,25.9179784 C15.4828364,26.8432924 14.8657212,27.7309 13.9339034,27.8998245 C13.8299922,27.9186092 13.7253905,27.9286185 13.6227911,27.9286185 L13.6227911,27.9286185 Z M6.98462553,29.7877476 C6.17280629,29.7877476 5.45171083,29.2134455 5.29988304,28.3920639 C4.43345001,23.6995421 5.45902946,18.9534773 8.18826945,15.0274914 C10.916819,11.1013685 15.0220367,8.46569415 19.7478908,7.60537217 C20.6774992,7.43651626 21.5722403,8.04845614 21.7437455,8.97370154 C21.9145604,9.89894694 21.2975142,10.7851835 20.3656965,10.9555477 C16.5418331,11.6511271 13.2195052,13.7845527 11.0105808,16.9615533 C8.80248481,20.1399249 7.97236892,23.9809001 8.67302734,27.7785471 C8.84384221,28.7023529 8.22755547,29.5900291 7.29573778,29.7604618 C7.19106703,29.7792465 7.08715588,29.7877476 6.98462553,29.7877476 L6.98462553,29.7877476 Z" id="Shape" sketch:type="MSShapeGroup" transform="translate(30.000000, 30.000000) scale(-1, 1) translate(-30.000000, -30.000000) "></path>
        </g>
    </g>
</svg>