<?xml version="1.0" encoding="UTF-8" standalone="no"?>
<svg width="60px" height="60px" viewBox="0 0 60 60" version="1.1" xmlns="http://www.w3.org/2000/svg" xmlns:xlink="http://www.w3.org/1999/xlink" xmlns:sketch="http://www.bohemiancoding.com/sketch/ns">
    <!-- Generator: Sketch 3.5.2 (25235) - http://www.bohemiancoding.com/sketch -->
    <title>icon_message</title>
    <desc>Created with Sketch.</desc>
    <defs></defs>
    <g id="Page-1" stroke="none" stroke-width="1" fill="none" fill-rule="evenodd" sketch:type="MSPage">
        <g id="icon_message" sketch:type="MSArtboardGroup" fill="#272636">
            <path d="M54.903264,46.7347006 C58.2380029,41.787666 60,36.0046556 60,30 C60,13.4575939 46.5426331,0 30.000506,0 C13.458379,0 0,13.4575939 0,30 C0,46.5424058 13.458379,60 30.000506,60 C35.2703043,60 40.4520536,58.6144659 44.9921565,55.9911611 C54.6158387,59.701437 55.8728178,59.1225289 56.6247787,58.7753861 L56.9162519,58.6428041 L57.1611706,58.4343163 C57.6985746,57.9748331 58.2552079,57.5001688 58.0295186,55.8231563 C57.8058531,54.1613251 56.8120098,51.2708319 54.903264,46.7347006 Z M50.1855929,46.6128774 L50.7240703,47.8710815 C51.6739566,50.0875205 52.6613384,52.5966381 53.3164684,54.453739 C51.3125416,53.8360941 48.5482887,52.8559864 46.0735844,51.882128 L44.948719,51.4394651 L43.9280075,52.0862736 C39.7649637,54.716212 34.9488728,56.1066943 30.000506,56.1066943 C15.605352,56.1066943 3.89425208,44.3953969 3.89425208,30 C3.89425208,15.6046031 15.605352,3.89330571 30.000506,3.89330571 C44.3956601,3.89330571 56.10676,15.6046031 56.10676,30 C56.10676,35.6348381 54.3403045,40.9988705 50.9990371,45.5140318 L50.1855929,46.6128774 Z M18.938686,33.3236622 C17.1058447,33.3236622 15.6140676,31.8328721 15.6140676,30 C15.6140676,28.1671277 17.1058447,26.6753255 18.938686,26.6753255 C20.7715273,26.6753255 22.2622923,28.1671277 22.2622923,30 C22.2622923,31.8328721 20.7715273,33.3236622 18.938686,33.3236622 Z M29.8881673,33.3236622 C28.055326,33.3236622 26.564561,31.8328721 26.564561,30 C26.564561,28.1671277 28.055326,26.6753255 29.8881673,26.6753255 C31.7210087,26.6753255 33.2117736,28.1671277 33.2117736,30 C33.2117736,31.8328721 31.7210087,33.3236622 29.8881673,33.3236622 Z M40.9671922,33.3236622 C39.134351,33.3236622 37.6435859,31.8328721 37.6435859,30 C37.6435859,28.1671277 39.134351,26.6753255 40.9671922,26.6753255 C42.8000337,26.6753255 44.2907985,28.1671277 44.2907985,30 C44.2907985,31.8328721 42.8000337,33.3236622 40.9671922,33.3236622 Z" id="Shape" sketch:type="MSShapeGroup"></path>
        </g>
    </g>
</svg>