<?xml version="1.0" encoding="UTF-8" standalone="no"?>
<svg width="60px" height="60px" viewBox="0 0 60 60" version="1.1" xmlns="http://www.w3.org/2000/svg" xmlns:xlink="http://www.w3.org/1999/xlink" xmlns:sketch="http://www.bohemiancoding.com/sketch/ns">
    <!-- Generator: Sketch 3.5.2 (25235) - http://www.bohemiancoding.com/sketch -->
    <title>icon_message</title>
    <desc>Created with Sketch.</desc>
    <defs></defs>
    <g id="Page-1" stroke="none" stroke-width="1" fill="none" fill-rule="evenodd" sketch:type="MSPage">
        <g id="icon_message" sketch:type="MSArtboardGroup" stroke="#000000" stroke-width="0.966666667" fill="#000000">
            <path d="M59,35.8832133 C59,28.1134347 51.702875,21.4930103 42.7455,20.8037558 C42.7581875,20.7070811 42.763625,20.6068259 42.741875,20.5065707 C40.9456875,12.2355159 31.9411875,6 21.7948125,6 C10.3289375,6 1,13.896888 1,23.6037405 C1,28.8116406 3.6915625,33.5039424 8.7919375,37.2044338 L7.013875,42.4839447 C6.8996875,42.8276768 7.003,43.2054241 7.2803125,43.4435303 C7.448875,43.586752 7.6609375,43.6619434 7.8748125,43.6619434 C8.0125625,43.6619434 8.152125,43.6297185 8.2808125,43.567059 L14.95625,40.2675885 L15.779125,40.4322935 C17.8345,40.8494267 19.6089375,41.2110616 21.7948125,41.2110616 C22.43825,41.2110616 23.09075,41.1824172 23.7305625,41.1287091 C23.98975,41.1072258 24.2090625,40.9783263 24.3576875,40.792138 C26.7646875,46.7412105 33.3984375,51.0360721 41.204875,51.0360721 C43.2040625,51.0360721 45.228625,50.5598598 47.04475,50.1105017 L52.1904375,52.8890032 C52.326375,52.9624043 52.4768125,53 52.6254375,53 C52.8284375,53 53.0314375,52.9319697 53.1945625,52.8012799 C53.4809375,52.5721251 53.59875,52.1943778 53.4918125,51.8488554 L52.17775,47.5325106 C56.5839375,44.0933988 59,39.9793547 59,35.8832133 L59,35.8832133 Z M23.5765,39.3438083 C22.9874375,39.3939359 22.3893125,39.4189997 21.796625,39.4189997 C19.795625,39.4189997 18.10275,39.0770579 16.14525,38.6778273 L15.007,38.4504628 C14.81125,38.4092866 14.604625,38.4361406 14.4251875,38.5274445 L9.4245,40.9998095 L10.7240625,37.1435645 C10.8509375,36.7658172 10.711375,36.3540548 10.3833125,36.1266903 C5.3590625,32.6678856 2.8125,28.4535863 2.8125,23.6037405 C2.8125,14.8851179 11.327625,7.79027159 21.7948125,7.79027159 C31.047625,7.79027159 39.240125,13.3508551 40.9311875,20.7464671 C31.228875,20.8717861 23.3789375,27.6085781 23.3789375,35.8832133 C23.3789375,37.0862759 23.5638125,38.2517427 23.8755625,39.3760332 C23.7813125,39.3527597 23.681625,39.334857 23.5765,39.3438083 L23.5765,39.3438083 Z M50.586375,46.4816211 C50.2836875,46.7071954 50.155,47.0956843 50.26375,47.4537386 L51.1210625,50.2698358 L47.603,48.3685674 C47.468875,48.2951663 47.3184375,48.2575706 47.168,48.2575706 C47.0936875,48.2575706 47.019375,48.2665219 46.946875,48.2862149 C45.0600625,48.7570563 43.108,49.2422199 41.2066875,49.2422199 C32.3761875,49.2422199 25.19325,43.2483907 25.19325,35.8814231 C25.19325,28.5144555 32.3761875,22.5224165 41.2066875,22.5224165 C49.868625,22.5224165 57.1875,28.6397745 57.1875,35.8814231 C57.1875,39.5550604 54.8439375,43.3200015 50.586375,46.4816211 L50.586375,46.4816211 Z" id="Shape" sketch:type="MSShapeGroup"></path>
        </g>
    </g>
</svg>