<?xml version="1.0" encoding="UTF-8" standalone="no"?>
<svg width="60px" height="60px" viewBox="0 0 60 60" version="1.1" xmlns="http://www.w3.org/2000/svg" xmlns:xlink="http://www.w3.org/1999/xlink" xmlns:sketch="http://www.bohemiancoding.com/sketch/ns">
    <!-- Generator: Sketch 3.5.2 (25235) - http://www.bohemiancoding.com/sketch -->
    <title>icon_message</title>
    <desc>Created with Sketch.</desc>
    <defs></defs>
    <g id="Page-1" stroke="none" stroke-width="1" fill="none" fill-rule="evenodd" sketch:type="MSPage">
        <g id="icon_message" sketch:type="MSArtboardGroup" stroke="#000000" fill="#000000">
            <path d="M60,36.1548394 C60,28.0544319 52.45125,21.1522874 43.185,20.4337028 C43.198125,20.3329143 43.20375,20.2283929 43.18125,20.1238716 C41.323125,11.500857 32.008125,5 21.511875,5 C9.650625,5 0,13.2329258 0,23.3528359 C0,28.7823487 2.784375,33.6743229 8.060625,37.532282 L6.22125,43.036453 C6.103125,43.394812 6.21,43.7886337 6.496875,44.036872 C6.67125,44.1861882 6.890625,44.2645793 7.111875,44.2645793 C7.254375,44.2645793 7.39875,44.2309831 7.531875,44.1656573 L14.4375,40.7257837 L15.28875,40.8974974 C17.415,41.3323811 19.250625,41.7094046 21.511875,41.7094046 C22.1775,41.7094046 22.8525,41.6795414 23.514375,41.6235478 C23.7825,41.6011503 24.009375,41.4667657 24.163125,41.2726546 C26.653125,47.4748791 33.515625,51.9525007 41.59125,51.9525007 C43.659375,51.9525007 45.75375,51.4560241 47.6325,50.9875443 L52.955625,53.8842799 C53.09625,53.9608045 53.251875,54 53.405625,54 C53.615625,54 53.825625,53.9290748 53.994375,53.7928237 C54.290625,53.5539176 54.4125,53.160096 54.301875,52.7998705 L52.9425,48.2998514 C57.500625,44.7143945 60,40.4252847 60,36.1548394 L60,36.1548394 Z M23.355,39.7626938 C22.745625,39.8149545 22.126875,39.8410848 21.51375,39.8410848 C19.44375,39.8410848 17.6925,39.4845922 15.6675,39.0683731 L14.49,38.8313336 C14.2875,38.7884051 14.07375,38.8164019 13.888125,38.9115911 L8.715,41.4891631 L10.059375,37.4688226 C10.190625,37.075001 10.04625,36.6457167 9.706875,36.4086771 C4.509375,32.8026892 1.875,28.409058 1.875,23.3528359 C1.875,14.263208 10.68375,6.86645336 21.511875,6.86645336 C31.08375,6.86645336 39.55875,12.6636575 41.308125,20.3739763 C31.27125,20.504628 23.150625,27.528092 23.150625,36.1548394 C23.150625,37.4090961 23.341875,38.6241572 23.664375,39.7962899 C23.566875,39.7720261 23.46375,39.7533615 23.355,39.7626938 L23.355,39.7626938 Z M51.29625,47.2042433 C50.983125,47.4394164 50.85,47.8444368 50.9625,48.2177275 L51.849375,51.1536586 L48.21,49.1714852 C48.07125,49.0949606 47.915625,49.0557651 47.76,49.0557651 C47.683125,49.0557651 47.60625,49.0650973 47.53125,49.0856283 C45.579375,49.5765055 43.56,50.0823144 41.593125,50.0823144 C32.458125,50.0823144 25.0275,43.8334286 25.0275,36.152973 C25.0275,28.4725174 32.458125,22.225498 41.593125,22.225498 C50.55375,22.225498 58.125,28.6031692 58.125,36.152973 C58.125,39.9829353 55.700625,43.9080867 51.29625,47.2042433 L51.29625,47.2042433 Z" id="Shape" sketch:type="MSShapeGroup"></path>
        </g>
    </g>
</svg>