<?xml version="1.0" encoding="UTF-8" standalone="no"?>
<svg width="60px" height="60px" viewBox="0 0 60 60" version="1.1" xmlns="http://www.w3.org/2000/svg" xmlns:xlink="http://www.w3.org/1999/xlink" xmlns:sketch="http://www.bohemiancoding.com/sketch/ns">
    <!-- Generator: Sketch 3.5.2 (25235) - http://www.bohemiancoding.com/sketch -->
    <title>icon_facetime</title>
    <desc>Created with Sketch.</desc>
    <defs></defs>
    <g id="Page-1" stroke="none" stroke-width="1" fill="none" fill-rule="evenodd" sketch:type="MSPage">
        <g id="icon_facetime" sketch:type="MSArtboardGroup" stroke="#000000" fill="#000000">
            <path d="M58.0093717,14.1238344 C56.742825,13.3196609 55.0745835,13.3196609 53.4312104,14.1238344 L41.3293403,20.0397783 L41.3293403,17.6011086 C41.3293403,13.9613303 38.4037005,11 34.807646,11 L10.1419085,11 L8.33779301,11 L6.52169432,11 C2.92563976,11 0,13.9613303 0,17.6011086 L0,18.1943919 L0,19.3246821 L0,40.6753179 L0,40.9745028 L0,42.3988914 C0,46.0386697 2.92563976,49 6.52169432,49 L14.7013865,49 L15.2960365,49 L34.8077749,49 C38.4038295,49 41.3294692,46.0389957 41.3294692,42.3988914 L41.3294692,39.9700032 L53.4353336,45.9400717 C54.2621743,46.3478318 55.0944911,46.5510923 55.8795194,46.5510923 C56.6543685,46.5510923 57.3821222,46.3533094 58.0110469,45.9545484 C59.2747588,45.1529834 60,43.6335833 60,41.783893 L59.9999999,18.2970981 C59.9998067,16.4486469 59.2734058,14.927747 58.0093717,14.1238344 L58.0093717,14.1238344 Z M38.7207399,42.3990218 C38.7207399,44.5827844 36.9652014,46.3597 34.8077104,46.3597 L14.7013219,46.3597 L14.7013219,46.3597 L6.52162985,46.3597 C4.36413885,46.3597 2.60860035,44.5824584 2.60860035,42.3990218 L2.60860035,40.9746332 L2.60860035,40.9746332 L2.60860035,18.1944571 L2.60860035,18.1944571 L2.60860035,17.6011738 C2.60860035,15.4177372 4.36413885,13.6404956 6.52162985,13.6404956 L8.33772854,13.6404956 L10.141844,13.6404956 L34.807646,13.6404956 C36.965137,13.6404956 38.7206755,15.4177372 38.7206755,17.6011738 L38.7206755,42.3990218 L38.7207399,42.3990218 Z M57.3911418,41.7839582 C57.3911418,42.7028366 57.1121781,43.406521 56.6269231,43.714118 C56.1388332,44.0204108 55.3930403,43.9662862 54.577603,43.564982 L41.3294048,37.0309749 L41.3294048,22.9707206 L54.5647822,16.5013368 C55.3824744,16.1028367 56.1337436,16.0498859 56.6215757,16.3603521 C57.1108252,16.6705576 57.3912062,17.3767852 57.3912062,18.2970981 L57.3912062,41.7839582 L57.3911418,41.7839582 Z" id="Shape" sketch:type="MSShapeGroup"></path>
        </g>
    </g>
</svg>